<?xml version="1.0" encoding="UTF-8" standalone="no"?>
<svg xmlns="http://www.w3.org/2000/svg" xmlns:xlink="http://www.w3.org/1999/xlink" xmlns:inkscape="http://www.inkscape.org/namespaces/inkscape" xmlns:sodipodi="http://sodipodi.sourceforge.net/DTD/sodipodi-0.0.dtd" width="2144.203" height="2117.713" viewBox="0 0 2144.203 2117.713">
  <g id="Ellipsoid Pattern" inkscape:groupmode="layer" inkscape:label="Ellipsoid Pattern">
    <path d="M48,664.882 L153.576,721.923 L172.527,741.278 L191.843,759.549 L211.569,776.7 L231.749,792.705 L252.426,807.549 L273.644,821.227 L295.443,833.745 L464.366,925.01 L486.784,936.383 L509.855,946.632 L533.604,955.791 L558.051,963.897 L583.208,970.995 L609.077,977.137 L635.653,982.378 L662.92,986.78 L690.851,990.408 L817.543,1058.857 L817.543,1058.857 L690.851,1127.305 L662.92,1130.933 L635.653,1135.335 L609.077,1140.576 L583.208,1146.718 L558.051,1153.817 L533.604,1161.922 L509.855,1171.081 L486.784,1181.331 L464.366,1192.703 L295.443,1283.968 L273.644,1296.486 L252.426,1310.164 L231.749,1325.008 L211.569,1341.013 L191.843,1358.164 L172.527,1376.435 L153.576,1395.791 L48,1452.831 L134.373,1612.698 L239.949,1555.658 L263.842,1545.45 L287.406,1535.04 L310.652,1524.405 L333.597,1513.52 L356.265,1502.361 L378.684,1490.905 L400.885,1479.129 L569.807,1387.864 L591.825,1375.749 L613.695,1363.277 L635.452,1350.434 L657.133,1337.208 L678.77,1323.595 L700.392,1309.591 L722.026,1295.202 L743.693,1280.435 L765.41,1265.305 L892.101,1196.857 L892.101,1196.857 L848.517,1334.102 L830.895,1353.851 L814.237,1374.1 L798.617,1394.862 L784.101,1416.144 L770.749,1437.943 L758.613,1460.252 L747.735,1483.056 L738.149,1506.336 L729.88,1530.067 L671.767,1713.062 L664.83,1737.215 L659.228,1761.761 L654.956,1786.663 L651.998,1811.886 L650.327,1837.395 L649.905,1863.152 L650.685,1889.123 L614.365,2003.494 L822.887,2069.713 L859.207,1955.342 L870.359,1933.16 L881.035,1910.659 L891.205,1887.85 L900.841,1864.747 L909.919,1841.371 L918.42,1817.746 L926.326,1793.9 L984.438,1610.906 L991.739,1586.867 L998.426,1562.666 L1004.497,1538.336 L1009.956,1513.906 L1014.809,1489.408 L1019.071,1464.87 L1022.759,1440.319 L1025.898,1415.777 L1028.517,1391.264 L1072.101,1254.018 L1072.101,1254.018 L1115.686,1391.264 L1118.304,1415.777 L1121.443,1440.319 L1125.132,1464.87 L1129.393,1489.408 L1134.247,1513.906 L1139.706,1538.336 L1145.777,1562.666 L1152.464,1586.867 L1159.765,1610.906 L1217.877,1793.9 L1225.783,1817.746 L1234.284,1841.371 L1243.362,1864.747 L1252.998,1887.85 L1263.167,1910.659 L1273.844,1933.16 L1284.996,1955.342 L1321.316,2069.713 L1529.838,2003.494 L1493.518,1889.123 L1494.298,1863.152 L1493.876,1837.395 L1492.204,1811.886 L1489.246,1786.663 L1484.975,1761.761 L1479.373,1737.215 L1472.435,1713.062 L1414.323,1530.067 L1406.054,1506.336 L1396.468,1483.056 L1385.59,1460.252 L1373.454,1437.943 L1360.102,1416.144 L1345.586,1394.862 L1329.965,1374.1 L1313.307,1353.851 L1295.686,1334.102 L1252.101,1196.857 L1252.101,1196.857 L1378.793,1265.305 L1400.51,1280.435 L1422.177,1295.202 L1443.81,1309.591 L1465.433,1323.595 L1487.069,1337.208 L1508.75,1350.434 L1530.508,1363.277 L1552.378,1375.749 L1574.396,1387.864 L1743.318,1479.129 L1765.519,1490.905 L1787.937,1502.361 L1810.605,1513.52 L1833.551,1524.405 L1856.797,1535.04 L1880.361,1545.45 L1904.254,1555.658 L2009.83,1612.698 L2096.203,1452.831 L1990.626,1395.791 L1971.676,1376.435 L1952.359,1358.164 L1932.634,1341.013 L1912.454,1325.008 L1891.777,1310.164 L1870.559,1296.486 L1848.759,1283.968 L1679.837,1192.703 L1657.418,1181.331 L1634.348,1171.081 L1610.599,1161.922 L1586.152,1153.817 L1560.995,1146.718 L1535.125,1140.576 L1508.549,1135.335 L1481.283,1130.933 L1453.351,1127.305 L1326.66,1058.857 L1326.66,1058.857 L1453.351,990.408 L1481.283,986.78 L1508.549,982.378 L1535.125,977.137 L1560.995,970.995 L1586.152,963.897 L1610.599,955.791 L1634.348,946.632 L1657.418,936.383 L1679.837,925.01 L1848.759,833.745 L1870.559,821.227 L1891.777,807.549 L1912.454,792.705 L1932.634,776.7 L1952.359,759.549 L1971.676,741.278 L1990.626,721.923 L2096.203,664.882 L2009.83,505.015 L1904.254,562.056 L1880.361,572.263 L1856.797,582.673 L1833.551,593.308 L1810.605,604.193 L1787.937,615.352 L1765.519,626.808 L1743.318,638.584 L1574.396,729.849 L1552.378,741.964 L1530.508,754.436 L1508.75,767.279 L1487.069,780.505 L1465.433,794.119 L1443.81,808.122 L1422.177,822.511 L1400.51,837.278 L1378.793,852.408 L1252.101,920.857 L1252.101,920.857 L1295.686,783.611 L1313.307,763.862 L1329.965,743.613 L1345.586,722.851 L1360.102,701.569 L1373.454,679.77 L1385.59,657.461 L1396.468,634.657 L1406.054,611.377 L1414.323,587.646 L1472.435,404.652 L1479.373,380.498 L1484.975,355.953 L1489.246,331.051 L1492.204,305.827 L1493.876,280.318 L1494.298,254.561 L1493.518,228.591 L1529.838,114.219 L1321.316,48 L1284.996,162.372 L1273.844,184.553 L1263.167,207.054 L1252.998,229.864 L1243.362,252.966 L1234.284,276.342 L1225.783,299.967 L1217.877,323.813 L1159.765,506.808 L1152.464,530.846 L1145.777,555.047 L1139.706,579.377 L1134.247,603.807 L1129.393,628.305 L1125.132,652.843 L1121.443,677.394 L1118.304,701.936 L1115.686,726.449 L1072.101,863.695 L1072.101,863.695 L1028.517,726.449 L1025.898,701.936 L1022.759,677.394 L1019.071,652.843 L1014.809,628.305 L1009.956,603.807 L1004.497,579.377 L998.426,555.047 L991.739,530.846 L984.438,506.808 L926.326,323.813 L918.42,299.967 L909.919,276.342 L900.841,252.966 L891.205,229.864 L881.035,207.054 L870.359,184.553 L859.207,162.372 L822.887,48 L614.365,114.219 L650.685,228.591 L649.905,254.561 L650.327,280.318 L651.998,305.827 L654.956,331.051 L659.228,355.953 L664.83,380.498 L671.767,404.652 L729.88,587.646 L738.149,611.377 L747.735,634.657 L758.613,657.461 L770.749,679.77 L784.101,701.569 L798.617,722.851 L814.237,743.613 L830.895,763.862 L848.517,783.611 L892.101,920.857 L892.101,920.857 L765.41,852.408 L743.693,837.278 L722.026,822.511 L700.392,808.122 L678.77,794.119 L657.133,780.505 L635.452,767.279 L613.695,754.436 L591.825,741.964 L569.807,729.849 L400.885,638.584 L378.684,626.808 L356.265,615.352 L333.597,604.193 L310.652,593.308 L287.406,582.673 L263.842,572.263 L239.949,562.056 L134.373,505.015 Z" fill="rgb(255,255,255)" fill-opacity="0.3" stroke="rgb(0,0,0)" stroke-width="1.6"/>
  </g>
  <g id="Bounding Box" inkscape:groupmode="layer" inkscape:label="Bounding Box">
    <rect x="0" y="0" width="2144.203" height="2117.713" fill="rgb(255,0,128)" fill-opacity="0" stroke="rgb(51,51,51)" stroke-width="0.96"/>
  </g>
  <g id="Guide Lines" inkscape:groupmode="layer" inkscape:label="Guide Lines">
    <g>
      <path d="M153.576,1395.791 L239.949,1555.658" fill="none" stroke="rgb(0,255,0)" stroke-width="0.8"/>
      <path d="M172.527,1376.435 L263.842,1545.45" fill="none" stroke="rgb(0,255,0)" stroke-width="0.8"/>
      <path d="M191.843,1358.164 L287.406,1535.04" fill="none" stroke="rgb(0,255,0)" stroke-width="0.8"/>
      <path d="M211.569,1341.013 L310.652,1524.405" fill="none" stroke="rgb(0,255,0)" stroke-width="0.8"/>
      <path d="M231.749,1325.008 L333.597,1513.52" fill="none" stroke="rgb(0,255,0)" stroke-width="0.8"/>
      <path d="M252.426,1310.164 L356.265,1502.361" fill="none" stroke="rgb(0,255,0)" stroke-width="0.8"/>
      <path d="M273.644,1296.486 L378.684,1490.905" fill="none" stroke="rgb(0,255,0)" stroke-width="0.8"/>
      <path d="M295.443,1283.968 L400.885,1479.129" fill="none" stroke="rgb(0,255,0)" stroke-width="0.8"/>
      <path d="M464.366,1192.703 L569.807,1387.864" fill="none" stroke="rgb(0,255,0)" stroke-width="0.8"/>
      <path d="M486.784,1181.331 L591.825,1375.749" fill="none" stroke="rgb(0,255,0)" stroke-width="0.8"/>
      <path d="M509.855,1171.081 L613.695,1363.277" fill="none" stroke="rgb(0,255,0)" stroke-width="0.8"/>
      <path d="M533.604,1161.922 L635.452,1350.434" fill="none" stroke="rgb(0,255,0)" stroke-width="0.8"/>
      <path d="M558.051,1153.817 L657.133,1337.208" fill="none" stroke="rgb(0,255,0)" stroke-width="0.8"/>
      <path d="M583.208,1146.718 L678.77,1323.595" fill="none" stroke="rgb(0,255,0)" stroke-width="0.8"/>
      <path d="M609.077,1140.576 L700.392,1309.591" fill="none" stroke="rgb(0,255,0)" stroke-width="0.8"/>
      <path d="M635.653,1135.335 L722.026,1295.202" fill="none" stroke="rgb(0,255,0)" stroke-width="0.8"/>
      <path d="M662.92,1130.933 L743.693,1280.435" fill="none" stroke="rgb(0,255,0)" stroke-width="0.8"/>
      <path d="M690.851,1127.305 L765.41,1265.305" fill="none" stroke="rgb(0,255,0)" stroke-width="0.8"/>
      <path d="M817.543,1058.857 L892.101,1196.857" fill="none" stroke="rgb(0,255,0)" stroke-width="0.8"/>
      <path d="M650.685,1889.123 L859.207,1955.342" fill="none" stroke="rgb(0,255,0)" stroke-width="0.8"/>
      <path d="M649.905,1863.152 L870.359,1933.16" fill="none" stroke="rgb(0,255,0)" stroke-width="0.8"/>
      <path d="M650.327,1837.395 L881.035,1910.659" fill="none" stroke="rgb(0,255,0)" stroke-width="0.8"/>
      <path d="M651.998,1811.886 L891.205,1887.85" fill="none" stroke="rgb(0,255,0)" stroke-width="0.8"/>
      <path d="M654.956,1786.663 L900.841,1864.747" fill="none" stroke="rgb(0,255,0)" stroke-width="0.8"/>
      <path d="M659.228,1761.761 L909.919,1841.371" fill="none" stroke="rgb(0,255,0)" stroke-width="0.8"/>
      <path d="M664.83,1737.215 L918.42,1817.746" fill="none" stroke="rgb(0,255,0)" stroke-width="0.8"/>
      <path d="M671.767,1713.062 L926.326,1793.9" fill="none" stroke="rgb(0,255,0)" stroke-width="0.8"/>
      <path d="M729.88,1530.067 L984.438,1610.906" fill="none" stroke="rgb(0,255,0)" stroke-width="0.8"/>
      <path d="M738.149,1506.336 L991.739,1586.867" fill="none" stroke="rgb(0,255,0)" stroke-width="0.8"/>
      <path d="M747.735,1483.056 L998.426,1562.666" fill="none" stroke="rgb(0,255,0)" stroke-width="0.8"/>
      <path d="M758.613,1460.252 L1004.497,1538.336" fill="none" stroke="rgb(0,255,0)" stroke-width="0.8"/>
      <path d="M770.749,1437.943 L1009.956,1513.906" fill="none" stroke="rgb(0,255,0)" stroke-width="0.8"/>
      <path d="M784.101,1416.144 L1014.809,1489.408" fill="none" stroke="rgb(0,255,0)" stroke-width="0.8"/>
      <path d="M798.617,1394.862 L1019.071,1464.87" fill="none" stroke="rgb(0,255,0)" stroke-width="0.8"/>
      <path d="M814.237,1374.1 L1022.759,1440.319" fill="none" stroke="rgb(0,255,0)" stroke-width="0.8"/>
      <path d="M830.895,1353.851 L1025.898,1415.777" fill="none" stroke="rgb(0,255,0)" stroke-width="0.8"/>
      <path d="M848.517,1334.102 L1028.517,1391.264" fill="none" stroke="rgb(0,255,0)" stroke-width="0.8"/>
      <path d="M892.101,1196.857 L1072.101,1254.018" fill="none" stroke="rgb(0,255,0)" stroke-width="0.8"/>
      <path d="M1284.996,1955.342 L1493.518,1889.123" fill="none" stroke="rgb(0,255,0)" stroke-width="0.8"/>
      <path d="M1273.844,1933.16 L1494.298,1863.152" fill="none" stroke="rgb(0,255,0)" stroke-width="0.8"/>
      <path d="M1263.167,1910.659 L1493.876,1837.395" fill="none" stroke="rgb(0,255,0)" stroke-width="0.8"/>
      <path d="M1252.998,1887.85 L1492.204,1811.886" fill="none" stroke="rgb(0,255,0)" stroke-width="0.8"/>
      <path d="M1243.362,1864.747 L1489.246,1786.663" fill="none" stroke="rgb(0,255,0)" stroke-width="0.8"/>
      <path d="M1234.284,1841.371 L1484.975,1761.761" fill="none" stroke="rgb(0,255,0)" stroke-width="0.8"/>
      <path d="M1225.783,1817.746 L1479.373,1737.215" fill="none" stroke="rgb(0,255,0)" stroke-width="0.8"/>
      <path d="M1217.877,1793.9 L1472.435,1713.062" fill="none" stroke="rgb(0,255,0)" stroke-width="0.8"/>
      <path d="M1159.765,1610.906 L1414.323,1530.067" fill="none" stroke="rgb(0,255,0)" stroke-width="0.8"/>
      <path d="M1152.464,1586.867 L1406.054,1506.336" fill="none" stroke="rgb(0,255,0)" stroke-width="0.8"/>
      <path d="M1145.777,1562.666 L1396.468,1483.056" fill="none" stroke="rgb(0,255,0)" stroke-width="0.8"/>
      <path d="M1139.706,1538.336 L1385.59,1460.252" fill="none" stroke="rgb(0,255,0)" stroke-width="0.8"/>
      <path d="M1134.247,1513.906 L1373.454,1437.943" fill="none" stroke="rgb(0,255,0)" stroke-width="0.8"/>
      <path d="M1129.393,1489.408 L1360.102,1416.144" fill="none" stroke="rgb(0,255,0)" stroke-width="0.8"/>
      <path d="M1125.132,1464.87 L1345.586,1394.862" fill="none" stroke="rgb(0,255,0)" stroke-width="0.8"/>
      <path d="M1121.443,1440.319 L1329.965,1374.1" fill="none" stroke="rgb(0,255,0)" stroke-width="0.8"/>
      <path d="M1118.304,1415.777 L1313.307,1353.851" fill="none" stroke="rgb(0,255,0)" stroke-width="0.8"/>
      <path d="M1115.686,1391.264 L1295.686,1334.102" fill="none" stroke="rgb(0,255,0)" stroke-width="0.8"/>
      <path d="M1072.101,1254.018 L1252.101,1196.857" fill="none" stroke="rgb(0,255,0)" stroke-width="0.8"/>
      <path d="M1904.254,1555.658 L1990.626,1395.791" fill="none" stroke="rgb(0,255,0)" stroke-width="0.8"/>
      <path d="M1880.361,1545.45 L1971.676,1376.435" fill="none" stroke="rgb(0,255,0)" stroke-width="0.8"/>
      <path d="M1856.797,1535.04 L1952.359,1358.164" fill="none" stroke="rgb(0,255,0)" stroke-width="0.8"/>
      <path d="M1833.551,1524.405 L1932.634,1341.013" fill="none" stroke="rgb(0,255,0)" stroke-width="0.8"/>
      <path d="M1810.605,1513.52 L1912.454,1325.008" fill="none" stroke="rgb(0,255,0)" stroke-width="0.8"/>
      <path d="M1787.937,1502.361 L1891.777,1310.164" fill="none" stroke="rgb(0,255,0)" stroke-width="0.8"/>
      <path d="M1765.519,1490.905 L1870.559,1296.486" fill="none" stroke="rgb(0,255,0)" stroke-width="0.8"/>
      <path d="M1743.318,1479.129 L1848.759,1283.968" fill="none" stroke="rgb(0,255,0)" stroke-width="0.8"/>
      <path d="M1574.396,1387.864 L1679.837,1192.703" fill="none" stroke="rgb(0,255,0)" stroke-width="0.8"/>
      <path d="M1552.378,1375.749 L1657.418,1181.331" fill="none" stroke="rgb(0,255,0)" stroke-width="0.8"/>
      <path d="M1530.508,1363.277 L1634.348,1171.081" fill="none" stroke="rgb(0,255,0)" stroke-width="0.8"/>
      <path d="M1508.75,1350.434 L1610.599,1161.922" fill="none" stroke="rgb(0,255,0)" stroke-width="0.8"/>
      <path d="M1487.069,1337.208 L1586.152,1153.817" fill="none" stroke="rgb(0,255,0)" stroke-width="0.8"/>
      <path d="M1465.433,1323.595 L1560.995,1146.718" fill="none" stroke="rgb(0,255,0)" stroke-width="0.8"/>
      <path d="M1443.81,1309.591 L1535.125,1140.576" fill="none" stroke="rgb(0,255,0)" stroke-width="0.8"/>
      <path d="M1422.177,1295.202 L1508.549,1135.335" fill="none" stroke="rgb(0,255,0)" stroke-width="0.8"/>
      <path d="M1400.51,1280.435 L1481.283,1130.933" fill="none" stroke="rgb(0,255,0)" stroke-width="0.8"/>
      <path d="M1378.793,1265.305 L1453.351,1127.305" fill="none" stroke="rgb(0,255,0)" stroke-width="0.8"/>
      <path d="M1252.101,1196.857 L1326.66,1058.857" fill="none" stroke="rgb(0,255,0)" stroke-width="0.8"/>
      <path d="M1990.626,721.923 L1904.254,562.056" fill="none" stroke="rgb(0,255,0)" stroke-width="0.8"/>
      <path d="M1971.676,741.278 L1880.361,572.263" fill="none" stroke="rgb(0,255,0)" stroke-width="0.8"/>
      <path d="M1952.359,759.549 L1856.797,582.673" fill="none" stroke="rgb(0,255,0)" stroke-width="0.8"/>
      <path d="M1932.634,776.7 L1833.551,593.308" fill="none" stroke="rgb(0,255,0)" stroke-width="0.8"/>
      <path d="M1912.454,792.705 L1810.605,604.193" fill="none" stroke="rgb(0,255,0)" stroke-width="0.8"/>
      <path d="M1891.777,807.549 L1787.937,615.352" fill="none" stroke="rgb(0,255,0)" stroke-width="0.8"/>
      <path d="M1870.559,821.227 L1765.519,626.808" fill="none" stroke="rgb(0,255,0)" stroke-width="0.8"/>
      <path d="M1848.759,833.745 L1743.318,638.584" fill="none" stroke="rgb(0,255,0)" stroke-width="0.8"/>
      <path d="M1679.837,925.01 L1574.396,729.849" fill="none" stroke="rgb(0,255,0)" stroke-width="0.8"/>
      <path d="M1657.418,936.383 L1552.378,741.964" fill="none" stroke="rgb(0,255,0)" stroke-width="0.8"/>
      <path d="M1634.348,946.632 L1530.508,754.436" fill="none" stroke="rgb(0,255,0)" stroke-width="0.8"/>
      <path d="M1610.599,955.791 L1508.75,767.279" fill="none" stroke="rgb(0,255,0)" stroke-width="0.8"/>
      <path d="M1586.152,963.897 L1487.069,780.505" fill="none" stroke="rgb(0,255,0)" stroke-width="0.8"/>
      <path d="M1560.995,970.995 L1465.433,794.119" fill="none" stroke="rgb(0,255,0)" stroke-width="0.8"/>
      <path d="M1535.125,977.137 L1443.81,808.122" fill="none" stroke="rgb(0,255,0)" stroke-width="0.8"/>
      <path d="M1508.549,982.378 L1422.177,822.511" fill="none" stroke="rgb(0,255,0)" stroke-width="0.8"/>
      <path d="M1481.283,986.78 L1400.51,837.278" fill="none" stroke="rgb(0,255,0)" stroke-width="0.8"/>
      <path d="M1453.351,990.408 L1378.793,852.408" fill="none" stroke="rgb(0,255,0)" stroke-width="0.8"/>
      <path d="M1326.66,1058.857 L1252.101,920.857" fill="none" stroke="rgb(0,255,0)" stroke-width="0.8"/>
      <path d="M1493.518,228.591 L1284.996,162.372" fill="none" stroke="rgb(0,255,0)" stroke-width="0.8"/>
      <path d="M1494.298,254.561 L1273.844,184.553" fill="none" stroke="rgb(0,255,0)" stroke-width="0.8"/>
      <path d="M1493.876,280.318 L1263.167,207.054" fill="none" stroke="rgb(0,255,0)" stroke-width="0.8"/>
      <path d="M1492.204,305.827 L1252.998,229.864" fill="none" stroke="rgb(0,255,0)" stroke-width="0.8"/>
      <path d="M1489.246,331.051 L1243.362,252.966" fill="none" stroke="rgb(0,255,0)" stroke-width="0.8"/>
      <path d="M1484.975,355.953 L1234.284,276.342" fill="none" stroke="rgb(0,255,0)" stroke-width="0.8"/>
      <path d="M1479.373,380.498 L1225.783,299.967" fill="none" stroke="rgb(0,255,0)" stroke-width="0.8"/>
      <path d="M1472.435,404.652 L1217.877,323.813" fill="none" stroke="rgb(0,255,0)" stroke-width="0.8"/>
      <path d="M1414.323,587.646 L1159.765,506.808" fill="none" stroke="rgb(0,255,0)" stroke-width="0.8"/>
      <path d="M1406.054,611.377 L1152.464,530.846" fill="none" stroke="rgb(0,255,0)" stroke-width="0.8"/>
      <path d="M1396.468,634.657 L1145.777,555.047" fill="none" stroke="rgb(0,255,0)" stroke-width="0.8"/>
      <path d="M1385.59,657.461 L1139.706,579.377" fill="none" stroke="rgb(0,255,0)" stroke-width="0.8"/>
      <path d="M1373.454,679.77 L1134.247,603.807" fill="none" stroke="rgb(0,255,0)" stroke-width="0.8"/>
      <path d="M1360.102,701.569 L1129.393,628.305" fill="none" stroke="rgb(0,255,0)" stroke-width="0.8"/>
      <path d="M1345.586,722.851 L1125.132,652.843" fill="none" stroke="rgb(0,255,0)" stroke-width="0.8"/>
      <path d="M1329.965,743.613 L1121.443,677.394" fill="none" stroke="rgb(0,255,0)" stroke-width="0.8"/>
      <path d="M1313.307,763.862 L1118.304,701.936" fill="none" stroke="rgb(0,255,0)" stroke-width="0.8"/>
      <path d="M1295.686,783.611 L1115.686,726.449" fill="none" stroke="rgb(0,255,0)" stroke-width="0.8"/>
      <path d="M1252.101,920.857 L1072.101,863.695" fill="none" stroke="rgb(0,255,0)" stroke-width="0.8"/>
      <path d="M859.207,162.372 L650.685,228.591" fill="none" stroke="rgb(0,255,0)" stroke-width="0.8"/>
      <path d="M870.359,184.553 L649.905,254.561" fill="none" stroke="rgb(0,255,0)" stroke-width="0.8"/>
      <path d="M881.035,207.054 L650.327,280.318" fill="none" stroke="rgb(0,255,0)" stroke-width="0.8"/>
      <path d="M891.205,229.864 L651.998,305.827" fill="none" stroke="rgb(0,255,0)" stroke-width="0.8"/>
      <path d="M900.841,252.966 L654.956,331.051" fill="none" stroke="rgb(0,255,0)" stroke-width="0.8"/>
      <path d="M909.919,276.342 L659.228,355.953" fill="none" stroke="rgb(0,255,0)" stroke-width="0.8"/>
      <path d="M918.42,299.967 L664.83,380.498" fill="none" stroke="rgb(0,255,0)" stroke-width="0.8"/>
      <path d="M926.326,323.813 L671.767,404.652" fill="none" stroke="rgb(0,255,0)" stroke-width="0.8"/>
      <path d="M984.438,506.808 L729.88,587.646" fill="none" stroke="rgb(0,255,0)" stroke-width="0.8"/>
      <path d="M991.739,530.846 L738.149,611.377" fill="none" stroke="rgb(0,255,0)" stroke-width="0.8"/>
      <path d="M998.426,555.047 L747.735,634.657" fill="none" stroke="rgb(0,255,0)" stroke-width="0.8"/>
      <path d="M1004.497,579.377 L758.613,657.461" fill="none" stroke="rgb(0,255,0)" stroke-width="0.8"/>
      <path d="M1009.956,603.807 L770.749,679.77" fill="none" stroke="rgb(0,255,0)" stroke-width="0.8"/>
      <path d="M1014.809,628.305 L784.101,701.569" fill="none" stroke="rgb(0,255,0)" stroke-width="0.8"/>
      <path d="M1019.071,652.843 L798.617,722.851" fill="none" stroke="rgb(0,255,0)" stroke-width="0.8"/>
      <path d="M1022.759,677.394 L814.237,743.613" fill="none" stroke="rgb(0,255,0)" stroke-width="0.8"/>
      <path d="M1025.898,701.936 L830.895,763.862" fill="none" stroke="rgb(0,255,0)" stroke-width="0.8"/>
      <path d="M1028.517,726.449 L848.517,783.611" fill="none" stroke="rgb(0,255,0)" stroke-width="0.8"/>
      <path d="M1072.101,863.695 L892.101,920.857" fill="none" stroke="rgb(0,255,0)" stroke-width="0.8"/>
      <path d="M239.949,562.056 L153.576,721.923" fill="none" stroke="rgb(0,255,0)" stroke-width="0.8"/>
      <path d="M263.842,572.263 L172.527,741.278" fill="none" stroke="rgb(0,255,0)" stroke-width="0.8"/>
      <path d="M287.406,582.673 L191.843,759.549" fill="none" stroke="rgb(0,255,0)" stroke-width="0.8"/>
      <path d="M310.652,593.308 L211.569,776.7" fill="none" stroke="rgb(0,255,0)" stroke-width="0.8"/>
      <path d="M333.597,604.193 L231.749,792.705" fill="none" stroke="rgb(0,255,0)" stroke-width="0.8"/>
      <path d="M356.265,615.352 L252.426,807.549" fill="none" stroke="rgb(0,255,0)" stroke-width="0.8"/>
      <path d="M378.684,626.808 L273.644,821.227" fill="none" stroke="rgb(0,255,0)" stroke-width="0.8"/>
      <path d="M400.885,638.584 L295.443,833.745" fill="none" stroke="rgb(0,255,0)" stroke-width="0.8"/>
      <path d="M569.807,729.849 L464.366,925.01" fill="none" stroke="rgb(0,255,0)" stroke-width="0.8"/>
      <path d="M591.825,741.964 L486.784,936.383" fill="none" stroke="rgb(0,255,0)" stroke-width="0.8"/>
      <path d="M613.695,754.436 L509.855,946.632" fill="none" stroke="rgb(0,255,0)" stroke-width="0.8"/>
      <path d="M635.452,767.279 L533.604,955.791" fill="none" stroke="rgb(0,255,0)" stroke-width="0.8"/>
      <path d="M657.133,780.505 L558.051,963.897" fill="none" stroke="rgb(0,255,0)" stroke-width="0.8"/>
      <path d="M678.77,794.119 L583.208,970.995" fill="none" stroke="rgb(0,255,0)" stroke-width="0.8"/>
      <path d="M700.392,808.122 L609.077,977.137" fill="none" stroke="rgb(0,255,0)" stroke-width="0.8"/>
      <path d="M722.026,822.511 L635.653,982.378" fill="none" stroke="rgb(0,255,0)" stroke-width="0.8"/>
      <path d="M743.693,837.278 L662.92,986.78" fill="none" stroke="rgb(0,255,0)" stroke-width="0.8"/>
      <path d="M765.41,852.408 L690.851,990.408" fill="none" stroke="rgb(0,255,0)" stroke-width="0.8"/>
      <path d="M892.101,920.857 L817.543,1058.857" fill="none" stroke="rgb(0,255,0)" stroke-width="0.8"/>
    </g>
  </g>
  <g id="Notes" inkscape:groupmode="layer" inkscape:label="Notes">
    <text x="14.4" y="1836.913" font-family="Roboto" font-size="24" fill="rgb(0,0,0)" text-anchor="middle" dominant-baseline="central" transform="rotate(-90,14.4,1836.913)">ellipsoid_a3.75in_b2.88in_c3.00in.svg</text>
    <text x="9.6" y="14.4" font-family="Courier New" font-size="12.694" fill="rgb(0,0,0)">{&quot;a&quot;:3.75,&quot;b&quot;:2.875,&quot;c&quot;:3.0,&quot;h_top&quot;:1.5,&quot;h_middle&quot;:2.0,&quot;h_bottom&quot;:1.25,&quot;h_top_fraction&quot;:1.0,&quot;h_top_shift&quot;:0.0,&quot;phi_divisions&quot;:8,&quot;theta_divisions&quot;:16,&quot;theta_min&quot;:-35.0,&quot;theta_max&quot;:45.0,&quot;unit&quot;:&quot;in&quot;,&quot;image_offset&quot;:0.5,&quot;min_gap&quot;:0.001,&quot;projection&quot;:&quot;spherical&quot;,&quot;inkscape_layers&quot;:true}</text>
    <path d="M48,2117.713 L48,2088.913" fill="none" stroke="rgb(179,77,128)" stroke-width="0.96"/>
    <path d="M48,2117.713 L48,2088.913" fill="none" stroke="rgb(179,77,128)" stroke-width="0.96"/>
    <text x="48" y="2103.313" font-family="Roboto" font-size="19.2" fill="rgb(0,0,0)">0in</text>
    <path d="M144,2117.713 L144,2088.913" fill="none" stroke="rgb(179,77,128)" stroke-width="0.96"/>
    <text x="144" y="2103.313" font-family="Roboto" font-size="19.2" fill="rgb(0,0,0)">1in</text>
    <path d="M240,2117.713 L240,2088.913" fill="none" stroke="rgb(179,77,128)" stroke-width="0.96"/>
    <text x="240" y="2103.313" font-family="Roboto" font-size="19.2" fill="rgb(0,0,0)">2in</text>
    <path d="M336,2117.713 L336,2088.913" fill="none" stroke="rgb(179,77,128)" stroke-width="0.96"/>
    <text x="336" y="2103.313" font-family="Roboto" font-size="19.2" fill="rgb(0,0,0)">3in</text>
    <path d="M432,2117.713 L432,2088.913" fill="none" stroke="rgb(179,77,128)" stroke-width="0.96"/>
    <text x="432" y="2103.313" font-family="Roboto" font-size="19.2" fill="rgb(0,0,0)">4in</text>
    <path d="M528,2117.713 L528,2088.913" fill="none" stroke="rgb(179,77,128)" stroke-width="0.96"/>
    <text x="528" y="2103.313" font-family="Roboto" font-size="19.2" fill="rgb(0,0,0)">5in</text>
    <path d="M624,2117.713 L624,2088.913" fill="none" stroke="rgb(179,77,128)" stroke-width="0.96"/>
    <text x="624" y="2103.313" font-family="Roboto" font-size="19.2" fill="rgb(0,0,0)">6in</text>
    <path d="M720,2117.713 L720,2088.913" fill="none" stroke="rgb(179,77,128)" stroke-width="0.96"/>
    <text x="720" y="2103.313" font-family="Roboto" font-size="19.2" fill="rgb(0,0,0)">7in</text>
    <path d="M816,2117.713 L816,2088.913" fill="none" stroke="rgb(179,77,128)" stroke-width="0.96"/>
    <text x="816" y="2103.313" font-family="Roboto" font-size="19.2" fill="rgb(0,0,0)">8in</text>
    <path d="M912,2117.713 L912,2088.913" fill="none" stroke="rgb(179,77,128)" stroke-width="0.96"/>
    <text x="912" y="2103.313" font-family="Roboto" font-size="19.2" fill="rgb(0,0,0)">9in</text>
    <path d="M1008,2117.713 L1008,2088.913" fill="none" stroke="rgb(179,77,128)" stroke-width="0.96"/>
    <text x="1008" y="2103.313" font-family="Roboto" font-size="19.2" fill="rgb(0,0,0)">10in</text>
    <path d="M1104,2117.713 L1104,2088.913" fill="none" stroke="rgb(179,77,128)" stroke-width="0.96"/>
    <text x="1104" y="2103.313" font-family="Roboto" font-size="19.2" fill="rgb(0,0,0)">11in</text>
    <path d="M1200,2117.713 L1200,2088.913" fill="none" stroke="rgb(179,77,128)" stroke-width="0.96"/>
    <text x="1200" y="2103.313" font-family="Roboto" font-size="19.2" fill="rgb(0,0,0)">12in</text>
    <path d="M1296,2117.713 L1296,2088.913" fill="none" stroke="rgb(179,77,128)" stroke-width="0.96"/>
    <text x="1296" y="2103.313" font-family="Roboto" font-size="19.2" fill="rgb(0,0,0)">13in</text>
    <path d="M1392,2117.713 L1392,2088.913" fill="none" stroke="rgb(179,77,128)" stroke-width="0.96"/>
    <text x="1392" y="2103.313" font-family="Roboto" font-size="19.2" fill="rgb(0,0,0)">14in</text>
    <path d="M1488,2117.713 L1488,2088.913" fill="none" stroke="rgb(179,77,128)" stroke-width="0.96"/>
    <text x="1488" y="2103.313" font-family="Roboto" font-size="19.2" fill="rgb(0,0,0)">15in</text>
    <path d="M1584,2117.713 L1584,2088.913" fill="none" stroke="rgb(179,77,128)" stroke-width="0.96"/>
    <text x="1584" y="2103.313" font-family="Roboto" font-size="19.2" fill="rgb(0,0,0)">16in</text>
    <path d="M1680,2117.713 L1680,2088.913" fill="none" stroke="rgb(179,77,128)" stroke-width="0.96"/>
    <text x="1680" y="2103.313" font-family="Roboto" font-size="19.2" fill="rgb(0,0,0)">17in</text>
    <path d="M1776,2117.713 L1776,2088.913" fill="none" stroke="rgb(179,77,128)" stroke-width="0.96"/>
    <text x="1776" y="2103.313" font-family="Roboto" font-size="19.2" fill="rgb(0,0,0)">18in</text>
    <path d="M1872,2117.713 L1872,2088.913" fill="none" stroke="rgb(179,77,128)" stroke-width="0.96"/>
    <text x="1872" y="2103.313" font-family="Roboto" font-size="19.2" fill="rgb(0,0,0)">19in</text>
    <path d="M1968,2117.713 L1968,2088.913" fill="none" stroke="rgb(179,77,128)" stroke-width="0.96"/>
    <text x="1968" y="2103.313" font-family="Roboto" font-size="19.2" fill="rgb(0,0,0)">20in</text>
  </g>
</svg>
