<?xml version="1.0" encoding="UTF-8" standalone="no"?>
<svg xmlns="http://www.w3.org/2000/svg" xmlns:xlink="http://www.w3.org/1999/xlink" xmlns:inkscape="http://www.inkscape.org/namespaces/inkscape" xmlns:sodipodi="http://sodipodi.sourceforge.net/DTD/sodipodi-0.0.dtd" width="1715.717" height="1660.143" viewBox="0 0 1715.717 1660.143">
  <g id="Ellipsoid Pattern" inkscape:groupmode="layer" inkscape:label="Ellipsoid Pattern">
    <path d="M48,1108.295 L77.51,1078.763 L107.955,1051.884 L139.5,1027.76 L172.309,1006.433 L189.799,996.509 L358.721,905.244 L375.478,896.607 L411.247,880.77 L448.66,867.527 L487.774,856.719 L528.595,848.155 L571.075,841.614 L615.111,836.851 L660.546,833.606 L707.173,831.598 L754.746,830.54 L802.981,830.132 L802.981,830.01 L754.746,829.603 L707.173,828.544 L660.546,826.537 L615.111,823.291 L571.075,818.529 L528.595,811.988 L487.774,803.424 L448.66,792.616 L411.247,779.372 L375.478,763.535 L358.721,754.898 L189.799,663.633 L172.309,653.71 L139.5,632.382 L107.955,608.259 L77.51,581.38 L48,551.847 L134.373,391.98 L171.249,407.878 L207.349,424.291 L242.732,441.31 L277.493,459.024 L295.24,468.472 L464.162,559.737 L480.694,568.792 L514.572,588.129 L548.206,608.366 L581.723,629.533 L615.231,651.634 L648.815,674.641 L682.534,698.497 L716.421,723.117 L750.48,748.388 L784.693,774.174 L819.021,800.322 L819.088,800.236 L785.202,773.516 L752.147,746.262 L720.298,718.258 L690.016,689.319 L661.642,659.301 L635.487,628.106 L611.832,595.678 L590.915,562.004 L572.933,527.111 L558.031,491.061 L551.953,473.219 L493.841,290.225 L488.183,270.932 L479.659,232.861 L474.317,193.962 L472.071,154.37 L472.776,114.219 L681.298,48 L698.378,82.503 L714.275,117.76 L728.884,153.717 L742.121,190.291 L748.399,209.387 L806.511,392.381 L812.045,410.396 L822.381,447.895 L831.241,485.685 L838.645,523.65 L844.644,561.685 L849.322,599.701 L852.791,637.627 L855.193,675.42 L856.699,713.06 L857.501,750.556 L858.216,750.556 L859.018,713.06 L860.524,675.42 L862.926,637.627 L866.395,599.701 L871.073,561.685 L877.072,523.65 L884.476,485.685 L893.336,447.895 L903.672,410.396 L909.205,392.381 L967.318,209.387 L973.595,190.291 L986.833,153.717 L1001.442,117.76 L1017.339,82.503 L1034.419,48 L1242.941,114.219 L1243.646,154.37 L1241.4,193.962 L1236.058,232.861 L1227.534,270.932 L1221.876,290.225 L1163.764,473.219 L1157.686,491.061 L1142.784,527.111 L1124.802,562.004 L1103.885,595.678 L1080.23,628.106 L1054.075,659.301 L1025.701,689.319 L995.419,718.258 L963.57,746.262 L930.515,773.516 L896.629,800.236 L896.695,800.322 L931.024,774.174 L965.237,748.388 L999.296,723.117 L1033.182,698.497 L1066.902,674.641 L1100.486,651.634 L1133.994,629.533 L1167.51,608.366 L1201.145,588.129 L1235.023,568.792 L1251.555,559.737 L1420.477,468.472 L1438.224,459.024 L1472.984,441.31 L1508.368,424.291 L1544.468,407.878 L1581.344,391.98 L1667.717,551.847 L1638.207,581.38 L1607.762,608.259 L1576.217,632.382 L1543.408,653.71 L1525.918,663.633 L1356.996,754.898 L1340.239,763.535 L1304.47,779.372 L1267.057,792.616 L1227.943,803.424 L1187.122,811.988 L1144.642,818.529 L1100.606,823.291 L1055.171,826.537 L1008.543,828.544 L960.971,829.603 L912.736,830.01 L912.736,830.132 L960.971,830.54 L1008.543,831.598 L1055.171,833.606 L1100.606,836.851 L1144.642,841.614 L1187.122,848.155 L1227.943,856.719 L1267.057,867.527 L1304.47,880.77 L1340.239,896.607 L1356.996,905.244 L1525.918,996.509 L1543.408,1006.433 L1576.217,1027.76 L1607.762,1051.884 L1638.207,1078.763 L1667.717,1108.295 L1581.344,1268.162 L1544.468,1252.265 L1508.368,1235.851 L1472.984,1218.832 L1438.224,1201.119 L1420.477,1191.671 L1251.555,1100.406 L1235.023,1091.351 L1201.145,1072.014 L1167.51,1051.777 L1133.994,1030.609 L1100.486,1008.509 L1066.902,985.502 L1033.182,961.645 L999.296,937.025 L965.237,911.755 L931.024,885.969 L896.695,859.821 L896.629,859.907 L930.515,886.627 L963.57,913.88 L995.419,941.885 L1025.701,970.824 L1054.075,1000.841 L1080.23,1032.037 L1103.885,1064.465 L1124.802,1098.139 L1142.784,1133.032 L1157.686,1169.081 L1163.764,1186.923 L1221.876,1369.917 L1227.534,1389.21 L1236.058,1427.281 L1241.4,1466.18 L1243.646,1505.773 L1242.941,1545.923 L1034.419,1612.143 L1017.339,1577.639 L1001.442,1542.382 L986.833,1506.426 L973.595,1469.852 L967.318,1450.756 L909.205,1267.762 L903.672,1249.747 L893.336,1212.247 L884.476,1174.458 L877.072,1136.493 L871.073,1098.457 L866.395,1060.442 L862.926,1022.515 L860.524,984.723 L859.018,947.082 L858.216,909.586 L857.501,909.586 L856.699,947.082 L855.193,984.723 L852.791,1022.515 L849.322,1060.442 L844.644,1098.457 L838.645,1136.493 L831.241,1174.458 L822.381,1212.247 L812.045,1249.747 L806.511,1267.762 L748.399,1450.756 L742.121,1469.852 L728.884,1506.426 L714.275,1542.382 L698.378,1577.639 L681.298,1612.143 L472.776,1545.923 L472.071,1505.773 L474.317,1466.18 L479.659,1427.281 L488.183,1389.21 L493.841,1369.917 L551.953,1186.923 L558.031,1169.081 L572.933,1133.032 L590.915,1098.139 L611.832,1064.465 L635.487,1032.037 L661.642,1000.841 L690.016,970.824 L720.298,941.885 L752.147,913.88 L785.202,886.627 L819.088,859.907 L819.021,859.821 L784.693,885.969 L750.48,911.755 L716.421,937.025 L682.534,961.645 L648.815,985.502 L615.231,1008.509 L581.723,1030.609 L548.206,1051.777 L514.572,1072.014 L480.694,1091.351 L464.162,1100.406 L295.24,1191.671 L277.493,1201.119 L242.732,1218.832 L207.349,1235.851 L171.249,1252.265 L134.373,1268.162 Z" fill="rgb(255,255,255)" fill-opacity="0.3" stroke="rgb(0,0,0)" stroke-width="1.6"/>
  </g>
  <g id="Bounding Box" inkscape:groupmode="layer" inkscape:label="Bounding Box">
    <rect x="0" y="0" width="1715.717" height="1660.143" fill="rgb(255,0,128)" fill-opacity="0" stroke="rgb(51,51,51)" stroke-width="0.96"/>
  </g>
  <g id="Guide Lines" inkscape:groupmode="layer" inkscape:label="Guide Lines">
    <g>
      <path d="M77.51,1078.763 L171.249,1252.265" fill="none" stroke="rgb(0,255,0)" stroke-width="0.8"/>
      <path d="M107.955,1051.884 L207.349,1235.851" fill="none" stroke="rgb(0,255,0)" stroke-width="0.8"/>
      <path d="M139.5,1027.76 L242.732,1218.832" fill="none" stroke="rgb(0,255,0)" stroke-width="0.8"/>
      <path d="M172.309,1006.433 L277.493,1201.119" fill="none" stroke="rgb(0,255,0)" stroke-width="0.8"/>
      <path d="M189.799,996.509 L295.24,1191.671" fill="none" stroke="rgb(0,255,0)" stroke-width="0.8"/>
      <path d="M358.721,905.244 L464.162,1100.406" fill="none" stroke="rgb(0,255,0)" stroke-width="0.8"/>
      <path d="M375.478,896.607 L480.694,1091.351" fill="none" stroke="rgb(0,255,0)" stroke-width="0.8"/>
      <path d="M411.247,880.77 L514.572,1072.014" fill="none" stroke="rgb(0,255,0)" stroke-width="0.8"/>
      <path d="M448.66,867.527 L548.206,1051.777" fill="none" stroke="rgb(0,255,0)" stroke-width="0.8"/>
      <path d="M487.774,856.719 L581.723,1030.609" fill="none" stroke="rgb(0,255,0)" stroke-width="0.8"/>
      <path d="M528.595,848.155 L615.231,1008.509" fill="none" stroke="rgb(0,255,0)" stroke-width="0.8"/>
      <path d="M571.075,841.614 L648.815,985.502" fill="none" stroke="rgb(0,255,0)" stroke-width="0.8"/>
      <path d="M615.111,836.851 L682.534,961.645" fill="none" stroke="rgb(0,255,0)" stroke-width="0.8"/>
      <path d="M660.546,833.606 L716.421,937.025" fill="none" stroke="rgb(0,255,0)" stroke-width="0.8"/>
      <path d="M707.173,831.598 L750.48,911.755" fill="none" stroke="rgb(0,255,0)" stroke-width="0.8"/>
      <path d="M754.746,830.54 L784.693,885.969" fill="none" stroke="rgb(0,255,0)" stroke-width="0.8"/>
      <path d="M802.981,830.132 L819.021,859.821" fill="none" stroke="rgb(0,255,0)" stroke-width="0.8"/>
      <path d="M851.576,830.071 L853.416,833.477" fill="none" stroke="rgb(0,255,0)" stroke-width="0.8"/>
      <path d="M472.071,1505.773 L698.378,1577.639" fill="none" stroke="rgb(0,255,0)" stroke-width="0.8"/>
      <path d="M474.317,1466.18 L714.275,1542.382" fill="none" stroke="rgb(0,255,0)" stroke-width="0.8"/>
      <path d="M479.659,1427.281 L728.884,1506.426" fill="none" stroke="rgb(0,255,0)" stroke-width="0.8"/>
      <path d="M488.183,1389.21 L742.121,1469.852" fill="none" stroke="rgb(0,255,0)" stroke-width="0.8"/>
      <path d="M493.841,1369.917 L748.399,1450.756" fill="none" stroke="rgb(0,255,0)" stroke-width="0.8"/>
      <path d="M551.953,1186.923 L806.511,1267.762" fill="none" stroke="rgb(0,255,0)" stroke-width="0.8"/>
      <path d="M558.031,1169.081 L812.045,1249.747" fill="none" stroke="rgb(0,255,0)" stroke-width="0.8"/>
      <path d="M572.933,1133.032 L822.381,1212.247" fill="none" stroke="rgb(0,255,0)" stroke-width="0.8"/>
      <path d="M590.915,1098.139 L831.241,1174.458" fill="none" stroke="rgb(0,255,0)" stroke-width="0.8"/>
      <path d="M611.832,1064.465 L838.645,1136.493" fill="none" stroke="rgb(0,255,0)" stroke-width="0.8"/>
      <path d="M635.487,1032.037 L844.644,1098.457" fill="none" stroke="rgb(0,255,0)" stroke-width="0.8"/>
      <path d="M661.642,1000.841 L849.322,1060.442" fill="none" stroke="rgb(0,255,0)" stroke-width="0.8"/>
      <path d="M690.016,970.824 L852.791,1022.515" fill="none" stroke="rgb(0,255,0)" stroke-width="0.8"/>
      <path d="M720.298,941.885 L855.193,984.723" fill="none" stroke="rgb(0,255,0)" stroke-width="0.8"/>
      <path d="M752.147,913.88 L856.699,947.082" fill="none" stroke="rgb(0,255,0)" stroke-width="0.8"/>
      <path d="M785.202,886.627 L857.501,909.586" fill="none" stroke="rgb(0,255,0)" stroke-width="0.8"/>
      <path d="M819.088,859.907 L857.812,872.204" fill="none" stroke="rgb(0,255,0)" stroke-width="0.8"/>
      <path d="M853.416,833.477 L857.858,834.888" fill="none" stroke="rgb(0,255,0)" stroke-width="0.8"/>
      <path d="M1017.339,1577.639 L1243.646,1505.773" fill="none" stroke="rgb(0,255,0)" stroke-width="0.8"/>
      <path d="M1001.442,1542.382 L1241.4,1466.18" fill="none" stroke="rgb(0,255,0)" stroke-width="0.8"/>
      <path d="M986.833,1506.426 L1236.058,1427.281" fill="none" stroke="rgb(0,255,0)" stroke-width="0.8"/>
      <path d="M973.595,1469.852 L1227.534,1389.21" fill="none" stroke="rgb(0,255,0)" stroke-width="0.8"/>
      <path d="M967.318,1450.756 L1221.876,1369.917" fill="none" stroke="rgb(0,255,0)" stroke-width="0.8"/>
      <path d="M909.205,1267.762 L1163.764,1186.923" fill="none" stroke="rgb(0,255,0)" stroke-width="0.8"/>
      <path d="M903.672,1249.747 L1157.686,1169.081" fill="none" stroke="rgb(0,255,0)" stroke-width="0.8"/>
      <path d="M893.336,1212.247 L1142.784,1133.032" fill="none" stroke="rgb(0,255,0)" stroke-width="0.8"/>
      <path d="M884.476,1174.458 L1124.802,1098.139" fill="none" stroke="rgb(0,255,0)" stroke-width="0.8"/>
      <path d="M877.072,1136.493 L1103.885,1064.465" fill="none" stroke="rgb(0,255,0)" stroke-width="0.8"/>
      <path d="M871.073,1098.457 L1080.23,1032.037" fill="none" stroke="rgb(0,255,0)" stroke-width="0.8"/>
      <path d="M866.395,1060.442 L1054.075,1000.841" fill="none" stroke="rgb(0,255,0)" stroke-width="0.8"/>
      <path d="M862.926,1022.515 L1025.701,970.824" fill="none" stroke="rgb(0,255,0)" stroke-width="0.8"/>
      <path d="M860.524,984.723 L995.419,941.885" fill="none" stroke="rgb(0,255,0)" stroke-width="0.8"/>
      <path d="M859.018,947.082 L963.57,913.88" fill="none" stroke="rgb(0,255,0)" stroke-width="0.8"/>
      <path d="M858.216,909.586 L930.515,886.627" fill="none" stroke="rgb(0,255,0)" stroke-width="0.8"/>
      <path d="M857.905,872.204 L896.629,859.907" fill="none" stroke="rgb(0,255,0)" stroke-width="0.8"/>
      <path d="M857.858,834.888 L862.301,833.477" fill="none" stroke="rgb(0,255,0)" stroke-width="0.8"/>
      <path d="M1544.468,1252.265 L1638.207,1078.763" fill="none" stroke="rgb(0,255,0)" stroke-width="0.8"/>
      <path d="M1508.368,1235.851 L1607.762,1051.884" fill="none" stroke="rgb(0,255,0)" stroke-width="0.8"/>
      <path d="M1472.984,1218.832 L1576.217,1027.76" fill="none" stroke="rgb(0,255,0)" stroke-width="0.8"/>
      <path d="M1438.224,1201.119 L1543.408,1006.433" fill="none" stroke="rgb(0,255,0)" stroke-width="0.8"/>
      <path d="M1420.477,1191.671 L1525.918,996.509" fill="none" stroke="rgb(0,255,0)" stroke-width="0.8"/>
      <path d="M1251.555,1100.406 L1356.996,905.244" fill="none" stroke="rgb(0,255,0)" stroke-width="0.8"/>
      <path d="M1235.023,1091.351 L1340.239,896.607" fill="none" stroke="rgb(0,255,0)" stroke-width="0.8"/>
      <path d="M1201.145,1072.014 L1304.47,880.77" fill="none" stroke="rgb(0,255,0)" stroke-width="0.8"/>
      <path d="M1167.51,1051.777 L1267.057,867.527" fill="none" stroke="rgb(0,255,0)" stroke-width="0.8"/>
      <path d="M1133.994,1030.609 L1227.943,856.719" fill="none" stroke="rgb(0,255,0)" stroke-width="0.8"/>
      <path d="M1100.486,1008.509 L1187.122,848.155" fill="none" stroke="rgb(0,255,0)" stroke-width="0.8"/>
      <path d="M1066.902,985.502 L1144.642,841.614" fill="none" stroke="rgb(0,255,0)" stroke-width="0.8"/>
      <path d="M1033.182,961.645 L1100.606,836.851" fill="none" stroke="rgb(0,255,0)" stroke-width="0.8"/>
      <path d="M999.296,937.025 L1055.171,833.606" fill="none" stroke="rgb(0,255,0)" stroke-width="0.8"/>
      <path d="M965.237,911.755 L1008.543,831.598" fill="none" stroke="rgb(0,255,0)" stroke-width="0.8"/>
      <path d="M931.024,885.969 L960.971,830.54" fill="none" stroke="rgb(0,255,0)" stroke-width="0.8"/>
      <path d="M896.695,859.821 L912.736,830.132" fill="none" stroke="rgb(0,255,0)" stroke-width="0.8"/>
      <path d="M862.301,833.477 L864.141,830.071" fill="none" stroke="rgb(0,255,0)" stroke-width="0.8"/>
      <path d="M1638.207,581.38 L1544.468,407.878" fill="none" stroke="rgb(0,255,0)" stroke-width="0.8"/>
      <path d="M1607.762,608.259 L1508.368,424.291" fill="none" stroke="rgb(0,255,0)" stroke-width="0.8"/>
      <path d="M1576.217,632.382 L1472.984,441.31" fill="none" stroke="rgb(0,255,0)" stroke-width="0.8"/>
      <path d="M1543.408,653.71 L1438.224,459.024" fill="none" stroke="rgb(0,255,0)" stroke-width="0.8"/>
      <path d="M1525.918,663.633 L1420.477,468.472" fill="none" stroke="rgb(0,255,0)" stroke-width="0.8"/>
      <path d="M1356.996,754.898 L1251.555,559.737" fill="none" stroke="rgb(0,255,0)" stroke-width="0.8"/>
      <path d="M1340.239,763.535 L1235.023,568.792" fill="none" stroke="rgb(0,255,0)" stroke-width="0.8"/>
      <path d="M1304.47,779.372 L1201.145,588.129" fill="none" stroke="rgb(0,255,0)" stroke-width="0.8"/>
      <path d="M1267.057,792.616 L1167.51,608.366" fill="none" stroke="rgb(0,255,0)" stroke-width="0.8"/>
      <path d="M1227.943,803.424 L1133.994,629.533" fill="none" stroke="rgb(0,255,0)" stroke-width="0.8"/>
      <path d="M1187.122,811.988 L1100.486,651.634" fill="none" stroke="rgb(0,255,0)" stroke-width="0.8"/>
      <path d="M1144.642,818.529 L1066.902,674.641" fill="none" stroke="rgb(0,255,0)" stroke-width="0.8"/>
      <path d="M1100.606,823.291 L1033.182,698.497" fill="none" stroke="rgb(0,255,0)" stroke-width="0.8"/>
      <path d="M1055.171,826.537 L999.296,723.117" fill="none" stroke="rgb(0,255,0)" stroke-width="0.8"/>
      <path d="M1008.543,828.544 L965.237,748.388" fill="none" stroke="rgb(0,255,0)" stroke-width="0.8"/>
      <path d="M960.971,829.603 L931.024,774.174" fill="none" stroke="rgb(0,255,0)" stroke-width="0.8"/>
      <path d="M912.736,830.01 L896.695,800.322" fill="none" stroke="rgb(0,255,0)" stroke-width="0.8"/>
      <path d="M864.141,830.071 L862.301,826.665" fill="none" stroke="rgb(0,255,0)" stroke-width="0.8"/>
      <path d="M1243.646,154.37 L1017.339,82.503" fill="none" stroke="rgb(0,255,0)" stroke-width="0.8"/>
      <path d="M1241.4,193.962 L1001.442,117.76" fill="none" stroke="rgb(0,255,0)" stroke-width="0.8"/>
      <path d="M1236.058,232.861 L986.833,153.717" fill="none" stroke="rgb(0,255,0)" stroke-width="0.8"/>
      <path d="M1227.534,270.932 L973.595,190.291" fill="none" stroke="rgb(0,255,0)" stroke-width="0.8"/>
      <path d="M1221.876,290.225 L967.318,209.387" fill="none" stroke="rgb(0,255,0)" stroke-width="0.8"/>
      <path d="M1163.764,473.219 L909.205,392.381" fill="none" stroke="rgb(0,255,0)" stroke-width="0.8"/>
      <path d="M1157.686,491.061 L903.672,410.396" fill="none" stroke="rgb(0,255,0)" stroke-width="0.8"/>
      <path d="M1142.784,527.111 L893.336,447.895" fill="none" stroke="rgb(0,255,0)" stroke-width="0.8"/>
      <path d="M1124.802,562.004 L884.476,485.685" fill="none" stroke="rgb(0,255,0)" stroke-width="0.8"/>
      <path d="M1103.885,595.678 L877.072,523.65" fill="none" stroke="rgb(0,255,0)" stroke-width="0.8"/>
      <path d="M1080.23,628.106 L871.073,561.685" fill="none" stroke="rgb(0,255,0)" stroke-width="0.8"/>
      <path d="M1054.075,659.301 L866.395,599.701" fill="none" stroke="rgb(0,255,0)" stroke-width="0.8"/>
      <path d="M1025.701,689.319 L862.926,637.627" fill="none" stroke="rgb(0,255,0)" stroke-width="0.8"/>
      <path d="M995.419,718.258 L860.524,675.42" fill="none" stroke="rgb(0,255,0)" stroke-width="0.8"/>
      <path d="M963.57,746.262 L859.018,713.06" fill="none" stroke="rgb(0,255,0)" stroke-width="0.8"/>
      <path d="M930.515,773.516 L858.216,750.556" fill="none" stroke="rgb(0,255,0)" stroke-width="0.8"/>
      <path d="M896.629,800.236 L857.905,787.938" fill="none" stroke="rgb(0,255,0)" stroke-width="0.8"/>
      <path d="M862.301,826.665 L857.858,825.254" fill="none" stroke="rgb(0,255,0)" stroke-width="0.8"/>
      <path d="M698.378,82.503 L472.071,154.37" fill="none" stroke="rgb(0,255,0)" stroke-width="0.8"/>
      <path d="M714.275,117.76 L474.317,193.962" fill="none" stroke="rgb(0,255,0)" stroke-width="0.8"/>
      <path d="M728.884,153.717 L479.659,232.861" fill="none" stroke="rgb(0,255,0)" stroke-width="0.8"/>
      <path d="M742.121,190.291 L488.183,270.932" fill="none" stroke="rgb(0,255,0)" stroke-width="0.8"/>
      <path d="M748.399,209.387 L493.841,290.225" fill="none" stroke="rgb(0,255,0)" stroke-width="0.8"/>
      <path d="M806.511,392.381 L551.953,473.219" fill="none" stroke="rgb(0,255,0)" stroke-width="0.8"/>
      <path d="M812.045,410.396 L558.031,491.061" fill="none" stroke="rgb(0,255,0)" stroke-width="0.8"/>
      <path d="M822.381,447.895 L572.933,527.111" fill="none" stroke="rgb(0,255,0)" stroke-width="0.8"/>
      <path d="M831.241,485.685 L590.915,562.004" fill="none" stroke="rgb(0,255,0)" stroke-width="0.8"/>
      <path d="M838.645,523.65 L611.832,595.678" fill="none" stroke="rgb(0,255,0)" stroke-width="0.8"/>
      <path d="M844.644,561.685 L635.487,628.106" fill="none" stroke="rgb(0,255,0)" stroke-width="0.8"/>
      <path d="M849.322,599.701 L661.642,659.301" fill="none" stroke="rgb(0,255,0)" stroke-width="0.8"/>
      <path d="M852.791,637.627 L690.016,689.319" fill="none" stroke="rgb(0,255,0)" stroke-width="0.8"/>
      <path d="M855.193,675.42 L720.298,718.258" fill="none" stroke="rgb(0,255,0)" stroke-width="0.8"/>
      <path d="M856.699,713.06 L752.147,746.262" fill="none" stroke="rgb(0,255,0)" stroke-width="0.8"/>
      <path d="M857.501,750.556 L785.202,773.516" fill="none" stroke="rgb(0,255,0)" stroke-width="0.8"/>
      <path d="M857.812,787.938 L819.088,800.236" fill="none" stroke="rgb(0,255,0)" stroke-width="0.8"/>
      <path d="M857.858,825.254 L853.416,826.665" fill="none" stroke="rgb(0,255,0)" stroke-width="0.8"/>
      <path d="M171.249,407.878 L77.51,581.38" fill="none" stroke="rgb(0,255,0)" stroke-width="0.8"/>
      <path d="M207.349,424.291 L107.955,608.259" fill="none" stroke="rgb(0,255,0)" stroke-width="0.8"/>
      <path d="M242.732,441.31 L139.5,632.382" fill="none" stroke="rgb(0,255,0)" stroke-width="0.8"/>
      <path d="M277.493,459.024 L172.309,653.71" fill="none" stroke="rgb(0,255,0)" stroke-width="0.8"/>
      <path d="M295.24,468.472 L189.799,663.633" fill="none" stroke="rgb(0,255,0)" stroke-width="0.8"/>
      <path d="M464.162,559.737 L358.721,754.898" fill="none" stroke="rgb(0,255,0)" stroke-width="0.8"/>
      <path d="M480.694,568.792 L375.478,763.535" fill="none" stroke="rgb(0,255,0)" stroke-width="0.8"/>
      <path d="M514.572,588.129 L411.247,779.372" fill="none" stroke="rgb(0,255,0)" stroke-width="0.8"/>
      <path d="M548.206,608.366 L448.66,792.616" fill="none" stroke="rgb(0,255,0)" stroke-width="0.8"/>
      <path d="M581.723,629.533 L487.774,803.424" fill="none" stroke="rgb(0,255,0)" stroke-width="0.8"/>
      <path d="M615.231,651.634 L528.595,811.988" fill="none" stroke="rgb(0,255,0)" stroke-width="0.8"/>
      <path d="M648.815,674.641 L571.075,818.529" fill="none" stroke="rgb(0,255,0)" stroke-width="0.8"/>
      <path d="M682.534,698.497 L615.111,823.291" fill="none" stroke="rgb(0,255,0)" stroke-width="0.8"/>
      <path d="M716.421,723.117 L660.546,826.537" fill="none" stroke="rgb(0,255,0)" stroke-width="0.8"/>
      <path d="M750.48,748.388 L707.173,828.544" fill="none" stroke="rgb(0,255,0)" stroke-width="0.8"/>
      <path d="M784.693,774.174 L754.746,829.603" fill="none" stroke="rgb(0,255,0)" stroke-width="0.8"/>
      <path d="M819.021,800.322 L802.981,830.01" fill="none" stroke="rgb(0,255,0)" stroke-width="0.8"/>
      <path d="M853.416,826.665 L851.576,830.071" fill="none" stroke="rgb(0,255,0)" stroke-width="0.8"/>
    </g>
  </g>
  <g id="Notes" inkscape:groupmode="layer" inkscape:label="Notes">
    <text x="14.4" y="1379.343" font-family="Roboto" font-size="24" fill="rgb(0,0,0)" text-anchor="middle" dominant-baseline="central" transform="rotate(-90,14.4,1379.343)">ellipsoid_a3.75in_b2.88in_c3.00in.svg</text>
    <text x="9.6" y="14.4" font-family="Courier New" font-size="10.171" fill="rgb(0,0,0)">{&quot;a&quot;:3.75,&quot;b&quot;:2.875,&quot;c&quot;:3.0,&quot;h_top&quot;:0.0,&quot;h_middle&quot;:2.0,&quot;h_bottom&quot;:0.0,&quot;h_top_fraction&quot;:1.0,&quot;h_top_shift&quot;:0.0,&quot;phi_divisions&quot;:8,&quot;theta_divisions&quot;:16,&quot;theta_min&quot;:-35.0,&quot;theta_max&quot;:90.0,&quot;unit&quot;:&quot;in&quot;,&quot;image_offset&quot;:0.5,&quot;min_gap&quot;:0.001,&quot;projection&quot;:&quot;spherical&quot;,&quot;inkscape_layers&quot;:true}</text>
    <path d="M48,1660.143 L48,1631.343" fill="none" stroke="rgb(179,77,128)" stroke-width="0.96"/>
    <path d="M48,1660.143 L48,1631.343" fill="none" stroke="rgb(179,77,128)" stroke-width="0.96"/>
    <text x="48" y="1645.743" font-family="Roboto" font-size="19.2" fill="rgb(0,0,0)">0in</text>
    <path d="M144,1660.143 L144,1631.343" fill="none" stroke="rgb(179,77,128)" stroke-width="0.96"/>
    <text x="144" y="1645.743" font-family="Roboto" font-size="19.2" fill="rgb(0,0,0)">1in</text>
    <path d="M240,1660.143 L240,1631.343" fill="none" stroke="rgb(179,77,128)" stroke-width="0.96"/>
    <text x="240" y="1645.743" font-family="Roboto" font-size="19.2" fill="rgb(0,0,0)">2in</text>
    <path d="M336,1660.143 L336,1631.343" fill="none" stroke="rgb(179,77,128)" stroke-width="0.96"/>
    <text x="336" y="1645.743" font-family="Roboto" font-size="19.2" fill="rgb(0,0,0)">3in</text>
    <path d="M432,1660.143 L432,1631.343" fill="none" stroke="rgb(179,77,128)" stroke-width="0.96"/>
    <text x="432" y="1645.743" font-family="Roboto" font-size="19.2" fill="rgb(0,0,0)">4in</text>
    <path d="M528,1660.143 L528,1631.343" fill="none" stroke="rgb(179,77,128)" stroke-width="0.96"/>
    <text x="528" y="1645.743" font-family="Roboto" font-size="19.2" fill="rgb(0,0,0)">5in</text>
    <path d="M624,1660.143 L624,1631.343" fill="none" stroke="rgb(179,77,128)" stroke-width="0.96"/>
    <text x="624" y="1645.743" font-family="Roboto" font-size="19.2" fill="rgb(0,0,0)">6in</text>
    <path d="M720,1660.143 L720,1631.343" fill="none" stroke="rgb(179,77,128)" stroke-width="0.96"/>
    <text x="720" y="1645.743" font-family="Roboto" font-size="19.2" fill="rgb(0,0,0)">7in</text>
    <path d="M816,1660.143 L816,1631.343" fill="none" stroke="rgb(179,77,128)" stroke-width="0.96"/>
    <text x="816" y="1645.743" font-family="Roboto" font-size="19.2" fill="rgb(0,0,0)">8in</text>
    <path d="M912,1660.143 L912,1631.343" fill="none" stroke="rgb(179,77,128)" stroke-width="0.96"/>
    <text x="912" y="1645.743" font-family="Roboto" font-size="19.2" fill="rgb(0,0,0)">9in</text>
    <path d="M1008,1660.143 L1008,1631.343" fill="none" stroke="rgb(179,77,128)" stroke-width="0.96"/>
    <text x="1008" y="1645.743" font-family="Roboto" font-size="19.2" fill="rgb(0,0,0)">10in</text>
    <path d="M1104,1660.143 L1104,1631.343" fill="none" stroke="rgb(179,77,128)" stroke-width="0.96"/>
    <text x="1104" y="1645.743" font-family="Roboto" font-size="19.2" fill="rgb(0,0,0)">11in</text>
    <path d="M1200,1660.143 L1200,1631.343" fill="none" stroke="rgb(179,77,128)" stroke-width="0.96"/>
    <text x="1200" y="1645.743" font-family="Roboto" font-size="19.2" fill="rgb(0,0,0)">12in</text>
    <path d="M1296,1660.143 L1296,1631.343" fill="none" stroke="rgb(179,77,128)" stroke-width="0.96"/>
    <text x="1296" y="1645.743" font-family="Roboto" font-size="19.2" fill="rgb(0,0,0)">13in</text>
    <path d="M1392,1660.143 L1392,1631.343" fill="none" stroke="rgb(179,77,128)" stroke-width="0.96"/>
    <text x="1392" y="1645.743" font-family="Roboto" font-size="19.2" fill="rgb(0,0,0)">14in</text>
    <path d="M1488,1660.143 L1488,1631.343" fill="none" stroke="rgb(179,77,128)" stroke-width="0.96"/>
    <text x="1488" y="1645.743" font-family="Roboto" font-size="19.2" fill="rgb(0,0,0)">15in</text>
  </g>
</svg>
